<?xml version="1.0" encoding="UTF-8"?>
<!-- Verso: QR ~22 mm lado, centrado. Gabarito 92x52 mm. -->
<svg xmlns="http://www.w3.org/2000/svg" width="92mm" height="52mm" viewBox="0 0 92 52" role="img" aria-label="Business card back QR">
  <title>Card back</title>
  <rect width="92" height="52" fill="#f2f1f0"/>
  <g transform="translate(46, 26) scale(0.628571) translate(-17.5, -17.5)">
    <path fill="#f2f1f0" d="M0 0h35v35H0z"/>
    <path
      stroke="#2a2a2a"
      d="M1 1.5h7m2 0h1m3 0h1m2 0h8m2 0h7M1 2.5h1m5 0h1m2 0h3m1 0h5m8 0h1m5 0h1M1 3.5h1m1 0h3m1 0h1m1 0h1m2 0h3m1 0h1m1 0h3m1 0h1m1 0h1m2 0h1m1 0h3m1 0h1M1 4.5h1m1 0h3m1 0h1m1 0h1m1 0h2m2 0h1m1 0h1m3 0h1m1 0h2m2 0h1m1 0h3m1 0h1M1 5.5h1m1 0h3m1 0h1m1 0h2m2 0h1m2 0h1m2 0h1m2 0h1m1 0h1m2 0h1m1 0h3m1 0h1M1 6.5h1m5 0h1m1 0h1m1 0h1m2 0h1m1 0h2m3 0h1m5 0h1m5 0h1M1 7.5h7m1 0h1m1 0h1m1 0h1m1 0h1m1 0h1m1 0h1m1 0h1m1 0h1m1 0h1m1 0h7M9 8.5h2m1 0h2m1 0h2m2 0h1m2 0h1m1 0h1M1 9.5h1m1 0h5m3 0h1m2 0h3m1 0h2m1 0h1m1 0h3m1 0h5M11 10.5h2m2 0h1m1 0h1m1 0h4m1 0h1m2 0h2m1 0h2m1 0h1M1 11.5h4m2 0h1m1 0h1m1 0h1m4 0h1m2 0h1m1 0h3m1 0h1m3 0h1m1 0h1M3 12.5h1m1 0h1m2 0h2m1 0h3m1 0h1m1 0h1m4 0h2m2 0h2m1 0h3m1 0h1M1 13.5h2m1 0h2m1 0h1m2 0h1m5 0h1m2 0h1m3 0h1m2 0h1m2 0h2M1 14.5h1m1 0h3m2 0h1m5 0h5m2 0h2m1 0h4m2 0h1m1 0h2M2 15.5h7m1 0h1m1 0h2m4 0h1m1 0h1m5 0h2m2 0h1m1 0h1M1 16.5h1m1 0h1m1 0h1m2 0h1m1 0h1m6 0h1m1 0h9m2 0h2M1 17.5h1m2 0h4m1 0h7m1 0h2m1 0h1m2 0h1m2 0h1m1 0h3m2 0h1M3 18.5h1m1 0h2m3 0h1m1 0h2m3 0h6m1 0h1m1 0h3m1 0h4M1 19.5h2m2 0h1m1 0h3m1 0h2m3 0h3m2 0h1m1 0h1m2 0h1m1 0h2m1 0h2M1 20.5h1m3 0h2m1 0h4m1 0h3m1 0h3m1 0h2m1 0h2m2 0h6M1 21.5h2m1 0h6m1 0h5m1 0h1m8 0h1m1 0h3m1 0h2M1 22.5h1m1 0h1m1 0h2m1 0h1m1 0h2m1 0h2m1 0h1m2 0h1m3 0h2m2 0h1m3 0h1m1 0h1M1 23.5h1m2 0h4m2 0h1m1 0h2m2 0h4m3 0h1m2 0h1m2 0h2m1 0h1M1 24.5h1m1 0h2m3 0h3m1 0h1m2 0h2m3 0h1m1 0h2m3 0h1m2 0h2m1 0h1M1 25.5h1m1 0h2m1 0h2m3 0h1m1 0h1m2 0h1m1 0h1m4 0h1m1 0h6M9 26.5h4m1 0h1m4 0h3m1 0h1m1 0h1m3 0h1m1 0h1m1 0h1M1 27.5h7m4 0h1m3 0h2m1 0h1m2 0h4m1 0h1m1 0h1m1 0h2M1 28.5h1m5 0h1m1 0h1m2 0h1m1 0h1m1 0h2m2 0h1m1 0h4m3 0h3M1 29.5h1m1 0h3m1 0h1m1 0h1m1 0h1m2 0h2m3 0h1m1 0h1m1 0h1m1 0h6m1 0h1M1 30.5h1m1 0h3m1 0h1m1 0h3m1 0h1m2 0h3m1 0h7m2 0h5M1 31.5h1m1 0h3m1 0h1m1 0h1m4 0h2m2 0h1m2 0h1m5 0h2m1 0h2M1 32.5h1m5 0h1m2 0h2m1 0h1m1 0h1m1 0h1m4 0h1m3 0h2m1 0h3M1 33.5h7m1 0h1m1 0h1m2 0h1m3 0h1m2 0h1m1 0h6m3 0h1"
    />
  </g>
</svg>
